<svg version="1" xmlns="http://www.w3.org/2000/svg" viewBox="0 0 48 48" enable-background="new 0 0 48 48">
    <g fill="#546E7A">
        <rect height="3" width="6" y="40.249937" x="5" />
        <rect height="3" width="6" y="40.249937" x="37" />
    </g>
    <path stroke="null" d="m44,41.24992l-40,0c-2.2,0 -4,-2.61306 -4,-5.806789l0,-20.3238c0,-3.19373 1.8,-5.80679 4,-5.80679l40,0c2.200001,0 4,2.61306 4,5.80679l0,20.3238c0,3.193729 -1.799999,5.806789 -4,5.806789z" fill="#78909C" />
    <g fill="#37474F">
        <rect height="2" width="2" y="13.375056" x="4.00001" />
        <rect height="2" width="2" y="17.375056" x="4.00001" />
        <rect height="2" width="2" y="21.375056" x="4.00001" />
        <rect height="2" width="2" y="13.375056" x="8.00001" />
        <rect height="2" width="2" y="17.375056" x="8.00001" />
        <rect height="2" width="2" y="21.375056" x="8.00001" />
        <rect height="2" width="2" y="13.375056" x="12.00001" />
        <rect height="2" width="2" y="17.375056" x="12.00001" />
        <rect height="2" width="2" y="21.375056" x="12.00001" />
        <rect height="2" width="2" y="13.375056" x="16.00001" />
        <rect height="2" width="2" y="17.375056" x="16.00001" />
        <rect height="2" width="2" y="21.375056" x="16.00001" />
        <rect height="2" width="2" y="13.375056" x="20.00001" />
        <rect height="2" width="2" y="17.375056" x="20.00001" />
        <rect height="2" width="2" y="21.375056" x="20.00001" />
        <rect height="2" width="2" y="25.249937" x="4.00001" />
        <rect height="2" width="2" y="29.249937" x="4.00001" />
        <rect height="2" width="2" y="33.249937" x="4.00001" />
        <rect height="2" width="2" y="25.249937" x="8.00001" />
        <rect height="2" width="2" y="29.249937" x="8.00001" />
        <rect height="2" width="2" y="33.249937" x="8.00001" />
        <rect height="2" width="2" y="25.249937" x="12.00001" />
        <rect height="2" width="2" y="29.249937" x="12.00001" />
        <rect height="2" width="2" y="33.249937" x="12.00001" />
        <rect height="2" width="2" y="25.249937" x="16.00001" />
        <rect height="2" width="2" y="29.249937" x="16.00001" />
        <rect height="2" width="2" y="33.249937" x="16.00001" />
        <rect height="2" width="2" y="25.249937" x="20.00001" />
        <rect height="2" width="2" y="29.249937" x="20.00001" />
        <rect height="2" width="2" y="33.249937" x="20.00001" />
    </g>
    <circle r="8" cy="30.249937" cx="36.00001" fill="#37474F" />
    <circle r="6" cy="30.249937" cx="36.00001" fill="#ffaa56" />
    <path d="m35.09161,4.575038l0,0c0,-1.139082 0.923321,-2.062481 2.062511,-2.062481l0,0c0.546906,0 1.071514,0.217296 1.458328,0.604076c0.386726,0.386798 0.604156,0.911408 0.604156,1.458405l0,0c0,1.139076 -0.923492,2.062477 -2.062485,2.062477l0,0c-1.139191,0 -2.062511,-0.923401 -2.062511,-2.062477zm1.031254,0l0,0c0,0.569543 0.461754,1.031241 1.031258,1.031241c0.569496,0 1.031231,-0.461699 1.031231,-1.031241c0,-0.569534 -0.461735,-1.031247 -1.031231,-1.031247l0,0c-0.569504,0 -1.031258,0.461713 -1.031258,1.031247z" stroke-opacity="null" stroke-width="null" stroke="null" fill="#595959" />
    <rect stroke="null" transform="rotate(-8.792826652526855 21.606134414672834,7.160312652587894) " height="0.562494" width="27.940718" y="6.879067" x="7.635778" fill-opacity="null" stroke-opacity="null" stroke-width="0" fill="#595959" />
    <path d="m6.752509,9.524061l0,0c0,-0.604059 0.489681,-1.093755 1.093744,-1.093755l0,0c0.290076,0 0.568273,0.115222 0.773396,0.320333c0.205112,0.205144 0.320339,0.48332 0.320339,0.773422l0,0c0,0.604052 -0.489676,1.093714 -1.093735,1.093714l0,0c-0.604063,0 -1.093744,-0.489662 -1.093744,-1.093714zm1.093744,-1.093755l0,2.187469m-1.093744,-1.093714l2.187479,0" fill-opacity="null" stroke-opacity="null" stroke-width="0" stroke="null" fill="#595959" />
    <rect height="5.99994" width="20.374796" y="13.468855" x="24.656243" stroke-opacity="null" stroke-width="0" stroke="null" fill="#dddddd" />
</svg>

